HIERARCHY
ROOT hip
{
	OFFSET 0.000000 0.000000 0.000000 
	CHANNELS 6 Xposition Yposition Zposition Xrotation Zrotation Yrotation
	JOINT abdomen
	{
		OFFSET 0.000000 3.402643 0.000000 
		CHANNELS 3 Xrotation Zrotation Yrotation
		JOINT chest
		{
			OFFSET 0.000000 8.438565 -0.680529 
			CHANNELS 3 Xrotation Zrotation Yrotation
			JOINT neck
			{
				OFFSET 0.000000 10.207942 -0.272212 
				CHANNELS 3 Xrotation Zrotation Yrotation
				JOINT head
				{
					OFFSET 0.000000 3.130431 0.000000 
					CHANNELS 3 Xrotation Zrotation Yrotation
					End Site
					{
						OFFSET 0.000000 3.130435 0.000000 
					}
				}
			}
			JOINT lCollar
			{
				OFFSET 3.470700 6.669187 -0.816635 
				CHANNELS 3 Yrotation Zrotation Xrotation
				JOINT lShldr
				{
					OFFSET 3.198488 0.000000 0.000000 
					CHANNELS 3 Zrotation Yrotation Xrotation
					JOINT lForeArm
					{
						OFFSET 10.139888 0.000000 0.000000 
						CHANNELS 3 Yrotation Zrotation Xrotation
						JOINT lHand
						{
							OFFSET 8.370511 0.000000 0.000000 
							CHANNELS 3 Zrotation Yrotation Xrotation
							End Site
							{
								OFFSET 4.083176 0.000000 0.000000 
							}
						}
					}
				}
			}
			JOINT rCollar
			{
				OFFSET -3.470700 6.669187 -0.816635 
				CHANNELS 3 Yrotation Zrotation Xrotation
				JOINT rShldr
				{
					OFFSET -3.198488 0.000000 0.000000 
					CHANNELS 3 Zrotation Yrotation Xrotation
					JOINT rForeArm
					{
						OFFSET -10.139888 0.000000 0.000000 
						CHANNELS 3 Yrotation Zrotation Xrotation
						JOINT rHand
						{
							OFFSET -8.370511 0.000000 0.000000 
							CHANNELS 3 Zrotation Yrotation Xrotation
							End Site
							{
								OFFSET -4.083176 0.000000 0.000000 
							}
						}
					}
				}
			}
		}
	}
	JOINT lThigh
	{
		OFFSET 5.308129 -1.633274 1.361059 
		CHANNELS 3 Xrotation Zrotation Yrotation
		JOINT lShin
		{
			OFFSET -2.041588 -20.007561 0.000000 
			CHANNELS 3 Xrotation Zrotation Yrotation
			JOINT lFoot
			{
				OFFSET 0.000000 -19.190928 -1.224953 
				CHANNELS 3 Xrotation Yrotation Zrotation
				End Site
				{
					OFFSET 0.000000 -2.449906 4.627600 
				}
			}
		}
	}
	JOINT rThigh
	{
		OFFSET -5.308129 -1.633274 1.361059 
		CHANNELS 3 Xrotation Zrotation Yrotation
		JOINT rShin
		{
			OFFSET 2.041588 -20.007561 0.000000 
			CHANNELS 3 Xrotation Zrotation Yrotation
			JOINT rFoot
			{
				OFFSET 0.000000 -19.190928 -1.224953 
				CHANNELS 3 Xrotation Yrotation Zrotation
				End Site
				{
					OFFSET 0.000000 -2.449906 4.627600 
				}
			}
		}
	}
}
MOTION
Frames: 16
Frame Time: 0.016667
-24.473322 10.153072 -54.062809 -103.005501 -17.926310 -1.151860 47.108082 -4.216331 -10.551471 7.928724 2.148100 1.387469 15.179105 2.818619 0.681006 28.010077 -4.346765 -8.472383 -12.674984 -0.965900 -0.057063 -83.662262 29.509634 -45.000000 -53.988842 -5.000000 20.242916 -17.115894 6.012812 43.613956 12.216515 1.385338 -0.078915 85.066933 6.534404 -13.167750 71.629280 5.000000 13.642176 60.181454 -14.784864 -4.445955 -20.255257 9.233550 4.449027 60.283604 -3.452440 -6.710386 -1.344232 16.092770 -1.486005 -21.021944 -4.667195 -5.832568 13.889256 4.099442 1.119525 5.568514 -9.027987 15.995382 
-24.597794 10.466216 -55.208145 -104.407997 -19.082678 -2.646680 45.127560 -4.209109 -9.997615 7.434219 2.783176 0.186196 17.406853 2.971736 0.845771 30.352848 -4.271718 -9.117972 -12.080761 -1.960765 -0.108647 -82.859627 30.601109 -45.000000 -51.795315 -5.000000 20.379110 -17.387852 4.225940 42.801216 12.003531 2.380139 -0.130714 83.770439 5.600512 -13.444371 69.266403 5.000000 15.497824 64.076912 -15.134926 -5.238544 -18.768744 9.960513 1.339313 58.993958 -4.096837 -7.608951 0.107101 15.974744 -0.701237 -19.760952 -4.402805 -7.806876 12.768734 3.123834 0.730504 4.934856 -9.868855 14.069652 
-24.780191 10.780186 -56.327709 -105.602020 -20.362839 -4.075497 43.445095 -3.929598 -9.517357 6.753184 3.427567 -1.104254 18.647882 3.139770 0.978689 31.611506 -4.182859 -9.293247 -11.330496 -2.702087 -0.146948 -82.478752 32.380352 -45.000000 -50.199966 -5.000000 20.753321 -17.215706 2.623126 39.039104 11.575164 2.897098 -0.157502 82.745682 4.920393 -12.880706 68.122643 5.000000 16.251020 66.783302 -14.640718 -5.943720 -17.367300 10.914413 -0.935437 58.300808 -4.468902 -8.060336 0.808106 15.121151 -1.058438 -18.834570 -4.071124 -8.210621 12.081511 2.390880 0.523901 5.215930 -10.539917 11.971421 
-24.962589 11.094152 -57.447289 -106.781441 -21.667736 -5.477385 41.788254 -3.626692 -9.036829 6.062697 4.071054 -2.395987 19.900023 3.309217 1.121252 32.868931 -4.094165 -9.458105 -10.580151 -3.445202 -0.175641 -82.092575 34.174187 -45.000000 -48.628742 -5.000000 21.079969 -16.917990 1.055322 35.268204 11.137241 3.404305 -0.183773 81.719040 4.250527 -12.315131 67.007622 5.000000 16.969110 69.463188 -14.069930 -6.512569 -15.987499 11.918201 -3.247535 57.594437 -4.869369 -8.508616 1.509631 14.339880 -1.375947 -17.882853 -3.766900 -8.595664 11.384473 1.679472 0.307443 5.481483 -11.151372 9.907471 
-25.073528 11.303365 -58.371735 -107.321785 -22.822342 -6.605796 41.147308 -3.005888 -8.543818 5.776075 4.714950 -2.719858 17.778145 4.237817 1.259326 32.223629 -3.057506 -10.092797 -10.511374 -3.308666 -0.168595 -83.073723 35.362221 -45.000000 -48.260014 -5.000000 21.735481 -14.886686 -0.422368 30.876648 10.298319 3.677518 -0.197931 80.655174 5.327408 -8.680530 67.994408 5.000000 15.381353 70.182022 -14.693198 -9.402273 -15.490395 12.611962 -4.217271 57.896282 -4.742553 -8.434136 1.703493 12.935556 -1.884485 -17.703722 -4.130368 -9.705308 12.190410 1.708065 0.313924 4.562125 -12.334193 8.468347 
-25.184464 11.512578 -59.296188 -107.837189 -23.984756 -7.733813 40.515591 -2.376199 -8.060244 5.495151 5.368444 -3.034992 15.658941 5.178313 1.346704 31.565176 -2.024553 -10.729684 -10.452409 -3.181882 -0.162053 -84.090637 36.552017 -45.000000 -47.887016 -5.000000 22.394646 -12.729467 -1.572962 26.383144 9.459467 3.950731 -0.212083 79.668259 6.476149 -5.060008 68.829170 5.000000 13.922174 71.234383 -15.255325 -12.280830 -15.021473 13.324490 -5.214835 58.187954 -4.644940 -8.334770 1.852175 11.512578 -2.377443 -17.533958 -4.499690 -10.805526 13.026609 1.718831 0.349712 3.639021 -13.512649 7.030725 
-25.242168 11.621838 -60.139824 -108.258797 -24.909513 -8.741185 40.544178 -1.910442 -7.754474 5.321818 5.875974 -3.056375 13.355405 6.206575 1.362141 30.005020 -0.870086 -11.739727 -10.540368 -3.024055 -0.163586 -85.039680 36.926666 -45.000000 -47.801464 -5.000000 22.539848 -11.213776 -2.381127 23.038689 8.815457 4.087374 -0.219162 79.098915 7.929180 -1.249075 68.811264 5.000000 13.079448 69.287521 -15.096651 -13.005800 -14.806733 13.676005 -5.722391 58.875725 -4.556981 -8.423673 2.060735 10.739660 -2.708927 -17.486443 -5.242273 -12.063848 14.471409 1.738121 0.400089 2.584758 -14.459082 5.904253 
-25.264387 11.664471 -60.929562 -108.634209 -25.665337 -9.662874 41.020435 -1.563232 -7.565121 5.234050 6.276556 -2.881249 10.909978 7.281252 1.292487 27.835423 0.323511 -13.007990 -10.735186 -2.848476 -0.154519 -85.918816 36.783924 -45.000000 -47.926598 -5.000000 22.321325 -10.118760 -3.044622 20.455944 8.307759 4.116718 -0.220688 78.849403 9.564988 2.713823 68.280487 5.000000 12.545598 65.185867 -14.354807 -12.096588 -14.785010 13.788960 -5.954038 59.795513 -4.487654 -8.603201 2.316124 10.378703 -2.932553 -17.523384 -6.256172 -13.427534 16.354708 1.770234 0.486348 1.481386 -15.351221 4.933147 
-25.310408 11.664289 -61.718025 -108.971893 -26.413372 -10.581037 41.541451 -1.313670 -7.451788 5.060254 6.628321 -2.724556 8.674531 8.303387 1.200632 26.033993 1.447035 -14.428501 -10.870989 -2.674748 -0.135873 -86.560280 36.622261 -45.000000 -48.159924 -5.000000 22.006945 -9.065636 -3.372794 18.224373 7.897756 4.155797 -0.222715 78.859741 10.973594 6.289556 67.452782 5.000000 12.205718 60.955551 -12.827516 -11.000447 -14.779449 13.941129 -6.084002 60.787193 -4.477900 -8.927860 2.587265 10.163790 -3.247634 -17.566778 -7.196268 -14.613740 18.449383 1.727804 0.565381 0.373852 -16.112286 3.819691 
-25.451622 11.492875 -62.501457 -109.200661 -27.108408 -11.448253 42.329060 -1.427837 -7.611845 4.545537 6.774938 -2.666347 7.275335 9.095243 1.152162 25.706488 2.493316 -16.304651 -10.753346 -2.479696 -0.125801 -86.256737 36.432968 -45.000000 -48.799786 -5.000000 21.324474 -8.246842 -2.679053 17.456026 7.858887 4.204566 -0.225238 79.504219 11.356214 8.276626 65.541367 5.000000 12.846055 56.097977 -8.754642 -10.001418 -14.979321 14.325317 -5.855583 62.119343 -4.624246 -9.840116 2.906194 10.412024 -3.828521 -17.847673 -7.926547 -15.046265 21.470198 1.474383 0.550359 -0.435806 -16.439230 2.398927 
-25.592829 11.321458 -63.284889 -109.409943 -27.813549 -12.334604 43.108593 -1.539002 -7.794463 4.041821 6.931347 -2.588701 5.873113 9.884265 1.086353 25.356571 3.526168 -18.179857 -10.645505 -2.284645 -0.115727 -85.966003 36.232357 -45.000000 -49.447281 -5.000000 20.643888 -7.455336 -1.962645 16.706068 7.829824 4.263086 -0.228264 80.152611 11.725741 10.268025 63.678757 5.000000 13.383832 51.485821 -4.488044 -9.183887 -15.162330 14.684697 -5.637144 63.423485 -4.761520 -10.738687 3.307440 10.673319 -4.441972 -18.134705 -8.681773 -15.454609 24.489956 1.229091 0.534492 -1.228178 -16.819143 0.969935 
-25.736502 11.110843 -64.012451 -109.480614 -28.503910 -13.188094 43.778614 -1.742488 -7.817407 3.556872 6.961402 -2.166061 4.749270 10.517410 1.032964 25.374998 4.627129 -20.891102 -10.459483 -2.040830 -0.103134 -84.940712 35.605942 -45.000000 -49.869560 -5.000000 20.220671 -6.237492 -1.512096 16.723215 7.868769 4.233822 -0.226750 80.440025 11.433019 10.394583 62.810024 5.000000 13.837780 49.863388 -3.143332 -9.397710 -15.386282 14.840365 -4.953657 65.354622 -4.547238 -11.295015 3.646550 9.914537 -5.124474 -18.416998 -9.598849 -15.405801 28.410034 1.396164 0.783974 -1.829897 -17.163715 -0.586868 
-25.880787 10.890427 -64.726044 -109.510178 -29.195629 -14.043921 44.432045 -1.979468 -7.801597 3.070072 6.962122 -1.655963 3.691085 11.110534 0.974193 25.438143 5.748661 -23.808592 -10.253951 -1.777509 -0.089530 -83.786591 34.830009 -45.000000 -50.242310 -5.000000 19.861734 -4.914372 -1.131099 16.951017 7.927207 4.194802 -0.224732 80.652885 10.983660 10.043080 62.186031 5.000000 14.283952 48.938931 -2.577999 -9.870129 -15.631371 14.987544 -4.163008 67.433815 -4.215780 -11.786070 3.944871 8.819468 -5.849526 -18.689283 -10.554599 -15.232027 32.560543 1.669497 1.080677 -2.362142 -17.527620 -2.177800 
-25.993996 10.717623 -65.395874 -109.421455 -30.025692 -14.878633 44.911411 -1.986735 -7.490562 2.631640 6.884472 -1.145799 2.759427 11.694006 0.918844 25.390879 6.853920 -26.452419 -10.097830 -1.678271 -0.094102 -82.717369 34.078865 -45.000000 -50.702187 -5.000000 19.685482 -3.737679 -1.038941 16.762997 7.955392 4.088871 -0.209536 80.633057 10.759474 10.074124 61.741550 5.000000 14.425177 50.653973 -3.376247 -10.362337 -15.794650 15.004808 -3.358838 69.822395 -3.727812 -12.009707 4.871879 7.362792 -7.190088 -18.789087 -11.591998 -15.216647 37.029476 2.084337 1.680298 -2.537358 -18.137800 -3.608014 
-26.060589 10.616224 -66.000038 -109.165207 -31.063499 -15.674432 45.120235 -1.639752 -6.731000 2.260032 6.669874 -0.635580 2.002699 12.238859 0.869509 25.226566 7.921527 -28.696226 -10.019961 -1.824573 -0.101661 -81.760979 33.380680 -45.000000 -51.311329 -5.000000 19.762596 -2.747896 -1.338431 15.961225 7.944853 3.874314 -0.198436 80.285065 10.869376 10.665092 61.548851 5.000000 14.127373 56.409935 -6.022315 -10.918981 -15.880270 14.856379 -2.527190 72.675713 -3.034514 -11.890720 6.716941 5.174292 -9.463919 -18.670212 -12.742254 -15.416472 41.936958 2.616965 2.568871 -2.010384 -19.160601 -4.766120 
-26.127186 10.514829 -66.604187 -108.899818 -32.092091 -16.481846 45.336941 -1.298906 -5.963023 1.886066 6.464835 -0.135141 1.245933 12.793366 0.816723 25.019400 8.987823 -30.948246 -9.932033 -1.982314 -0.100111 -80.838028 32.655087 -45.000000 -51.911579 -5.000000 19.835033 -1.760025 -1.608125 15.154525 7.944705 3.648656 -0.196481 79.939941 10.988594 11.262830 61.354073 5.000000 13.813323 62.294720 -8.453568 -11.477192 -15.949395 14.739719 -1.706442 75.522209 -2.352004 -11.736651 8.397509 2.897433 -11.664672 -18.532032 -13.912066 -15.616066 46.857460 3.085445 3.541342 -1.562748 -20.127293 -5.916845 
